<svg width="842" height="186" viewBox="0 0 842 186" fill="none" xmlns="http://www.w3.org/2000/svg">
<rect width="185.961" height="186" rx="10" fill="url(#paint0_linear_8035_26)"/>
<g filter="url(#filter0_di_8035_26)">
<path d="M42.789 148.288C34.5628 148.288 27.8941 141.619 27.8941 133.393V44.18C27.8941 33.1343 36.8484 24.18 47.8941 24.18H78.8077C88.0355 24.18 95.9995 25.998 102.7 29.6339C109.44 33.2295 114.636 38.2593 118.287 44.7232C121.938 51.1468 123.763 58.6207 123.763 67.145C123.763 75.7097 121.898 83.2039 118.166 89.6274C114.475 96.0106 109.199 100.96 102.339 104.474C95.4779 107.989 87.3334 109.746 77.9049 109.746H58.3071C51.7808 109.746 46.4902 104.456 46.4902 97.9296V97.9296C46.4902 91.4033 51.7808 86.1127 58.3071 86.1127H72.3682C76.8618 86.1127 80.6131 85.3249 83.6222 83.7493C86.6714 82.1737 88.9783 79.9719 90.5431 77.1439C92.1078 74.2756 92.8901 70.9426 92.8901 67.145C92.8901 63.3071 92.1078 59.9943 90.5431 57.2067C88.9783 54.3787 86.6714 52.1972 83.6222 50.662C80.573 49.1268 76.8217 48.3592 72.3682 48.3592V48.3592C64.2583 48.3592 57.6839 54.9336 57.6839 63.0435V133.393C57.6839 141.619 51.0153 148.288 42.789 148.288V148.288Z" fill="white"/>
<path d="M129.46 163.68C122.961 163.68 117.384 162.333 112.73 159.64C108.103 156.947 104.545 153.203 102.058 148.409C99.5703 143.588 98.3265 138.013 98.3265 131.683C98.3265 125.327 99.5703 119.752 102.058 114.958C104.572 110.137 108.143 106.38 112.77 103.687C117.424 100.993 122.974 99.6465 129.42 99.6465C135.117 99.6465 140.079 100.683 144.305 102.757C148.558 104.831 151.875 107.767 154.255 111.564C155.003 112.736 155.641 113.971 156.169 115.269C158.199 120.257 153.625 124.856 148.241 124.856H148.017C143.292 124.856 139.826 120.76 136.522 117.382V117.382C134.783 115.577 132.51 114.675 129.701 114.675C127.428 114.675 125.435 115.322 123.723 116.614C122.011 117.88 120.674 119.766 119.711 122.27C118.775 124.748 118.307 127.819 118.307 131.481C118.307 135.144 118.775 138.242 119.711 140.773C120.674 143.278 122.011 145.177 123.723 146.47C125.435 147.736 127.428 148.369 129.701 148.369C131.52 148.369 133.125 147.978 134.516 147.197C135.933 146.416 137.097 145.271 138.006 143.763V143.763C139.712 140.883 142.265 138.188 145.612 138.188H148.228C153.602 138.188 158.132 142.792 156.158 147.792C155.631 149.125 154.997 150.395 154.255 151.601C151.928 155.425 148.652 158.401 144.426 160.529C140.226 162.63 135.238 163.68 129.46 163.68Z" fill="white"/>
<path d="M58.3071 85.6127C58.266 85.6127 58.2249 85.6129 58.1839 85.6133V63.0435C58.1839 55.2097 64.5345 48.8592 72.3682 48.8592C76.7665 48.8592 80.4358 49.6175 83.3973 51.1086C86.362 52.6012 88.5923 54.7139 90.1055 57.4488L90.107 57.4514C91.6221 60.1506 92.3901 63.3756 92.3901 67.145C92.3901 70.872 91.6229 74.1197 90.1048 76.9032C88.591 79.6386 86.3593 81.7721 83.3926 83.3051L83.3902 83.3063C80.4721 84.8343 76.8061 85.6127 72.3682 85.6127H58.3071ZM58.1839 133.393V110.246C58.2249 110.246 58.266 110.246 58.3071 110.246H77.9049C87.3952 110.246 95.6213 108.477 102.567 104.919C109.509 101.363 114.858 96.348 118.599 89.8777C122.381 83.3671 124.263 75.7839 124.263 67.145C124.263 58.548 122.422 50.9866 118.722 44.4771C115.023 37.9285 109.757 32.8325 102.937 29.1936C96.1496 25.511 88.1007 23.68 78.8077 23.68H47.8941C36.5723 23.68 27.3941 32.8582 27.3941 44.18V133.393C27.3941 141.895 34.2866 148.788 42.789 148.788C51.2914 148.788 58.1839 141.895 58.1839 133.393ZM112.478 160.072L112.48 160.073C117.224 162.818 122.891 164.18 129.46 164.18C135.298 164.18 140.366 163.119 144.649 160.976L144.65 160.975C148.955 158.808 152.303 155.77 154.681 151.862C155.439 150.631 156.086 149.336 156.623 147.975C157.687 145.281 156.99 142.685 155.325 140.785C153.668 138.897 151.053 137.688 148.228 137.688H145.612C141.981 137.688 139.299 140.6 137.577 143.506C136.709 144.945 135.608 146.024 134.274 146.759L134.271 146.761C132.965 147.494 131.446 147.869 129.701 147.869C127.528 147.869 125.642 147.266 124.022 146.069C122.403 144.846 121.116 143.034 120.179 140.597C119.27 138.137 118.807 135.104 118.807 131.481C118.807 127.858 119.27 124.852 120.178 122.448C121.116 120.01 122.403 118.212 124.02 117.016L124.024 117.013C125.644 115.79 127.529 115.175 129.701 115.175C132.392 115.175 134.529 116.034 136.162 117.729L136.522 117.382L136.164 117.732C136.464 118.038 136.767 118.352 137.074 118.671C138.437 120.086 139.875 121.578 141.431 122.781C143.347 124.263 145.501 125.356 148.017 125.356H148.241C151.07 125.356 153.699 124.149 155.36 122.263C157.033 120.366 157.727 117.772 156.633 115.081C156.093 113.755 155.442 112.494 154.678 111.297C152.245 107.417 148.856 104.42 144.525 102.308C140.217 100.194 135.178 99.1465 129.42 99.1465C122.904 99.1465 117.264 100.508 112.52 103.254L112.519 103.254C107.808 105.996 104.172 109.823 101.614 114.727L101.614 114.728C99.0835 119.605 97.8265 125.261 97.8265 131.683C97.8265 138.079 99.0837 143.735 101.613 148.638L101.614 148.639C104.145 153.517 107.768 157.331 112.478 160.072Z" stroke="#E9E9E9"/>
</g>
<g filter="url(#filter1_d_8035_26)">
<path d="M238.534 134.935C233.563 134.935 229.534 130.905 229.534 125.935V57.36C229.534 52.3894 233.563 48.36 238.534 48.36H266.895C273.319 48.36 278.94 49.6282 283.758 52.1645C288.576 54.7009 292.324 58.2659 295 62.8595C297.677 67.4532 299.016 72.8218 299.016 78.9654C299.016 85.1654 297.635 90.5341 294.874 95.0714C292.141 99.6086 288.295 103.103 283.336 105.555C278.405 108.007 272.643 109.233 266.05 109.233H252.734C247.764 109.233 243.734 105.203 243.734 100.233V99.9709C243.734 95.0003 247.764 90.9709 252.734 90.9709H261.316C264.077 90.9709 266.43 90.4918 268.374 89.5336C270.347 88.5473 271.854 87.1523 272.897 85.3486C273.967 83.545 274.503 81.4173 274.503 78.9654C274.503 76.4854 273.967 74.3718 272.897 72.6245C271.854 70.8491 270.347 69.4963 268.374 68.5663C266.43 67.6082 264.077 67.1291 261.316 67.1291V67.1291C256.741 67.1291 253.033 70.8378 253.033 75.4128V125.935C253.033 130.905 249.003 134.935 244.033 134.935H238.534Z" fill="#72A7F0"/>
<path d="M328.33 98.4109V125.935C328.33 130.905 324.3 134.935 319.33 134.935H314C309.03 134.935 305 130.905 305 125.935V57.36C305 52.3894 309.03 48.36 314 48.36H318.484C323.455 48.36 327.484 52.3894 327.484 57.36V81.9511C327.484 82.1699 327.662 82.3473 327.881 82.3473V82.3473C328.048 82.3473 328.198 82.241 328.256 82.0834C329.73 78.0673 332.136 74.9284 335.472 72.6668C338.882 70.3277 342.981 69.1582 347.771 69.1582C352.364 69.1582 356.351 70.2009 359.732 72.2863C363.141 74.3718 365.775 77.2464 367.635 80.91C369.523 84.5736 370.453 88.7727 370.425 93.5073V125.935C370.425 130.905 366.395 134.935 361.425 134.935H356.095C351.124 134.935 347.095 130.905 347.095 125.935V98.4109C347.123 95.1982 346.32 92.6759 344.686 90.8441C343.08 89.0123 340.783 88.0964 337.797 88.0964C335.909 88.0964 334.247 88.5191 332.81 89.3645C331.401 90.1818 330.302 91.3654 329.513 92.9154C328.752 94.4373 328.358 96.2691 328.33 98.4109Z" fill="#72A7F0"/>
<path d="M410.241 136.118C403.197 136.118 397.168 134.723 392.152 131.933C387.137 129.115 383.291 125.198 380.614 120.181C377.938 115.137 376.599 109.289 376.599 102.638C376.599 95.9873 377.938 90.1536 380.614 85.1373C383.291 80.0927 387.137 76.1754 392.152 73.3854C397.168 70.5673 403.197 69.1582 410.241 69.1582C417.285 69.1582 423.315 70.5673 428.33 73.3854C433.345 76.1754 437.192 80.0927 439.868 85.1373C442.545 90.1536 443.883 95.9873 443.883 102.638C443.883 109.289 442.545 115.137 439.868 120.181C437.192 125.198 433.345 129.115 428.33 131.933C423.315 134.723 417.285 136.118 410.241 136.118ZM410.41 118.871C412.383 118.871 414.087 118.209 415.524 116.884C416.961 115.56 418.074 113.671 418.863 111.22C419.652 108.768 420.046 105.851 420.046 102.469C420.046 99.0591 419.652 96.1423 418.863 93.7186C418.074 91.2668 416.961 89.3786 415.524 88.0541C414.087 86.7295 412.383 86.0673 410.41 86.0673C408.325 86.0673 406.536 86.7295 405.043 88.0541C403.549 89.3786 402.408 91.2668 401.619 93.7186C400.831 96.1423 400.436 99.0591 400.436 102.469C400.436 105.851 400.831 108.768 401.619 111.22C402.408 113.671 403.549 115.56 405.043 116.884C406.536 118.209 408.325 118.871 410.41 118.871Z" fill="#72A7F0"/>
<path d="M480.634 70.0036C485.303 70.0036 489.089 73.7889 489.089 78.4582V78.4582C489.089 83.1275 485.303 86.9127 480.634 86.9127H454.772C450.103 86.9127 446.318 83.1275 446.318 78.4582V78.4582C446.318 73.7889 450.103 70.0036 454.772 70.0036H480.634ZM454.601 63.4473C454.601 58.4767 458.631 54.4473 463.601 54.4473H468.931C473.902 54.4473 477.931 58.4767 477.931 63.4473V114.052C477.931 114.954 478.086 115.715 478.396 116.335C478.706 116.926 479.185 117.377 479.833 117.687C480.481 117.969 481.312 118.11 482.326 118.11C483.031 118.11 483.848 118.025 484.778 117.856V117.856C485.935 117.652 487.089 118.393 487.326 119.545L489.339 129.307C489.867 131.868 488.34 134.386 485.792 134.977V134.977C483.876 135.428 481.594 135.724 478.945 135.865C473.592 136.146 469.098 135.597 465.463 134.216C461.828 132.807 459.095 130.595 457.264 127.579C455.433 124.564 454.545 120.787 454.601 116.25V63.4473Z" fill="#72A7F0"/>
<path d="M526.211 136.118C519.167 136.118 513.138 134.723 508.122 131.933C503.107 129.115 499.261 125.198 496.584 120.181C493.907 115.137 492.569 109.289 492.569 102.638C492.569 95.9873 493.907 90.1536 496.584 85.1373C499.261 80.0927 503.107 76.1754 508.122 73.3854C513.138 70.5673 519.167 69.1582 526.211 69.1582C533.255 69.1582 539.285 70.5673 544.3 73.3854C549.315 76.1754 553.161 80.0927 555.838 85.1373C558.515 90.1536 559.853 95.9873 559.853 102.638C559.853 109.289 558.515 115.137 555.838 120.181C553.161 125.198 549.315 129.115 544.3 131.933C539.285 134.723 533.255 136.118 526.211 136.118ZM526.38 118.871C528.352 118.871 530.057 118.209 531.494 116.884C532.931 115.56 534.044 113.671 534.833 111.22C535.622 108.768 536.016 105.851 536.016 102.469C536.016 99.0591 535.622 96.1423 534.833 93.7186C534.044 91.2668 532.931 89.3786 531.494 88.0541C530.057 86.7295 528.352 86.0673 526.38 86.0673C524.295 86.0673 522.506 86.7295 521.013 88.0541C519.519 89.3786 518.378 91.2668 517.589 93.7186C516.8 96.1423 516.406 99.0591 516.406 102.469C516.406 105.851 516.8 108.768 517.589 111.22C518.378 113.671 519.519 115.56 521.013 116.884C522.506 118.209 524.295 118.871 526.38 118.871Z" fill="#72A7F0"/>
<path d="M597.62 136.118C590.576 136.118 584.546 134.723 579.531 131.933C574.516 129.115 570.67 125.198 567.993 120.181C565.316 115.137 563.978 109.289 563.978 102.638C563.978 95.9873 565.316 90.1536 567.993 85.1373C570.67 80.0927 574.516 76.1754 579.531 73.3854C584.546 70.5673 590.576 69.1582 597.62 69.1582C603.988 69.1582 609.496 70.3136 614.145 72.6245C618.822 74.9073 622.443 78.1482 625.007 82.3473C626.11 84.1416 626.978 86.0715 627.612 88.137C629.075 92.9057 624.838 97.0582 619.85 97.0582H615.475C610.82 97.0582 607.548 92.9624 604.47 89.4698C604.414 89.4056 604.356 89.3423 604.298 89.28C602.664 87.4764 600.55 86.5745 597.958 86.5745C595.93 86.5745 594.154 87.1664 592.633 88.35C591.111 89.5054 589.928 91.2668 589.083 93.6341C588.237 95.9732 587.815 98.9182 587.815 102.469C587.815 106.02 588.237 108.979 589.083 111.346C589.928 113.685 591.111 115.447 592.633 116.63C594.154 117.786 595.93 118.364 597.958 118.364C599.677 118.364 601.198 117.969 602.523 117.18C603.847 116.363 604.918 115.179 605.735 113.629V113.629C607.33 110.651 609.868 107.88 613.246 107.88H619.761C624.784 107.88 629.021 112.079 627.574 116.888C626.935 119.012 626.066 120.997 624.965 122.845C622.429 127.072 618.836 130.341 614.187 132.652C609.567 134.963 604.044 136.118 597.62 136.118Z" fill="#72A7F0"/>
<path d="M666.652 136.118C659.72 136.118 653.747 134.794 648.732 132.145C643.745 129.467 639.899 125.635 637.194 120.646C634.517 115.63 633.179 109.627 633.179 102.638C633.179 95.9309 634.531 90.0691 637.236 85.0527C639.941 80.0363 643.759 76.1332 648.69 73.3432C653.62 70.5532 659.439 69.1582 666.145 69.1582C671.047 69.1582 675.485 69.9191 679.458 71.4409C683.43 72.9627 686.826 75.175 689.643 78.0777C692.461 80.9523 694.63 84.4468 696.152 88.5614C697.673 92.6759 698.434 97.3118 698.434 102.469V102.469C698.434 105.457 696.012 107.88 693.023 107.88H646.874C643.325 107.88 640.448 105.003 640.448 101.455V101.455C640.448 97.9059 643.325 95.0291 646.874 95.0291H671.783C674.632 95.0291 677.096 92.5032 675.527 90.1254V90.1254C674.625 88.6882 673.4 87.575 671.85 86.7859C670.329 85.9686 668.596 85.56 666.652 85.56C664.764 85.56 663.031 85.9686 661.453 86.7859C659.875 87.575 658.607 88.6741 657.649 90.0832C656.72 91.4923 656.227 93.1409 656.17 95.0291V108.895C656.17 110.98 656.607 112.84 657.48 114.475C658.354 116.109 659.608 117.391 661.242 118.321C662.876 119.251 664.848 119.716 667.159 119.716C668.765 119.716 670.23 119.491 671.554 119.04C672.907 118.589 674.062 117.941 675.02 117.095V117.095C676.713 115.551 678.653 113.967 680.945 113.967H687.854C693.4 113.967 697.744 119.15 694.677 123.772C694.232 124.442 693.752 125.091 693.236 125.719C690.503 129.016 686.882 131.581 682.374 133.413C677.894 135.216 672.653 136.118 666.652 136.118Z" fill="#72A7F0"/>
<path d="M762.052 82.1188C764.404 86.6608 760.056 91.14 754.941 91.14H746.607C744.481 91.14 742.832 89.3336 741.452 87.7159V87.7159C740.635 86.7577 739.579 86.025 738.283 85.5177C737.015 84.9823 735.606 84.7145 734.056 84.7145C732.056 84.7145 730.337 85.0809 728.9 85.8136C727.463 86.5464 726.759 87.5891 726.787 88.9418C726.759 89.9 727.167 90.7877 728.012 91.605C728.886 92.4223 730.562 93.0564 733.042 93.5073L746.228 95.8745C752.878 97.0864 757.823 99.1295 761.063 102.004C764.331 104.85 765.979 108.669 766.008 113.46C765.979 118.082 764.599 122.098 761.866 125.508C759.161 128.89 755.456 131.51 750.75 133.37C746.073 135.202 740.734 136.118 734.732 136.118C724.814 136.118 717.052 134.089 711.445 130.031C708.779 128.091 706.675 125.856 705.135 123.324C702.373 118.782 706.709 113.967 712.024 113.967H719.418C722.78 113.967 725.498 116.901 728.308 118.744V118.744C730.055 119.843 732.253 120.393 734.901 120.393C737.043 120.393 738.804 120.026 740.184 119.294C741.593 118.561 742.312 117.518 742.34 116.165C742.312 114.925 741.692 113.939 740.48 113.206C739.297 112.474 737.437 111.882 734.901 111.431L723.406 109.402C716.784 108.246 711.825 106.048 708.529 102.807C705.232 99.5664 703.598 95.3954 703.626 90.2945C703.598 85.7854 704.781 81.9668 707.176 78.8386C709.599 75.6823 713.051 73.2868 717.531 71.6523C722.039 69.9895 727.378 69.1582 733.549 69.1582C742.932 69.1582 750.328 71.1027 755.738 74.9918C758.515 76.9779 760.619 79.3536 762.052 82.1188Z" fill="#72A7F0"/>
<path d="M829.044 82.1188C831.397 86.6608 827.048 91.14 821.933 91.14H813.599C811.473 91.14 809.824 89.3336 808.445 87.7159V87.7159C807.628 86.7577 806.571 86.025 805.275 85.5177C804.007 84.9823 802.598 84.7145 801.049 84.7145C799.048 84.7145 797.329 85.0809 795.892 85.8136C794.455 86.5464 793.751 87.5891 793.779 88.9418C793.751 89.9 794.16 90.7877 795.005 91.605C795.878 92.4223 797.555 93.0564 800.034 93.5073L813.221 95.8745C819.87 97.0864 824.815 99.1295 828.055 102.004C831.324 104.85 832.972 108.669 833 113.46C832.972 118.082 831.591 122.098 828.858 125.508C826.153 128.89 822.448 131.51 817.743 133.37C813.066 135.202 807.726 136.118 801.725 136.118C791.807 136.118 784.044 134.089 778.437 130.031C775.771 128.091 773.668 125.856 772.128 123.324C769.365 118.782 773.701 113.967 779.017 113.967H786.411C789.772 113.967 792.49 116.901 795.301 118.744V118.744C797.048 119.843 799.245 120.393 801.894 120.393C804.035 120.393 805.796 120.026 807.177 119.294C808.586 118.561 809.304 117.518 809.332 116.165C809.304 114.925 808.684 113.939 807.473 113.206C806.289 112.474 804.43 111.882 801.894 111.431L790.398 109.402C783.777 108.246 778.818 106.048 775.521 102.807C772.225 99.5664 770.59 95.3954 770.619 90.2945C770.59 85.7854 771.774 81.9668 774.169 78.8386C776.592 75.6823 780.043 73.2868 784.523 71.6523C789.032 69.9895 794.371 69.1582 800.541 69.1582C809.924 69.1582 817.32 71.1027 822.73 74.9918C825.507 76.9779 827.612 79.3536 829.044 82.1188Z" fill="#72A7F0"/>
</g>
<defs>
<filter id="filter0_di_8035_26" x="21.0941" y="21.38" width="142.367" height="153.1" filterUnits="userSpaceOnUse" color-interpolation-filters="sRGB">
<feFlood flood-opacity="0" result="BackgroundImageFix"/>
<feColorMatrix in="SourceAlpha" type="matrix" values="0 0 0 0 0 0 0 0 0 0 0 0 0 0 0 0 0 0 127 0" result="hardAlpha"/>
<feOffset dy="4"/>
<feGaussianBlur stdDeviation="2.9"/>
<feComposite in2="hardAlpha" operator="out"/>
<feColorMatrix type="matrix" values="0 0 0 0 1 0 0 0 0 1 0 0 0 0 1 0 0 0 0.1 0"/>
<feBlend mode="normal" in2="BackgroundImageFix" result="effect1_dropShadow_8035_26"/>
<feBlend mode="normal" in="SourceGraphic" in2="effect1_dropShadow_8035_26" result="shape"/>
<feColorMatrix in="SourceAlpha" type="matrix" values="0 0 0 0 0 0 0 0 0 0 0 0 0 0 0 0 0 0 127 0" result="hardAlpha"/>
<feOffset dx="3" dy="3"/>
<feGaussianBlur stdDeviation="4.25"/>
<feComposite in2="hardAlpha" operator="arithmetic" k2="-1" k3="1"/>
<feColorMatrix type="matrix" values="0 0 0 0 0 0 0 0 0 0 0 0 0 0 0 0 0 0 0.33 0"/>
<feBlend mode="normal" in2="shape" result="effect2_innerShadow_8035_26"/>
</filter>
<filter id="filter1_d_8035_26" x="222.534" y="43.36" width="619.466" height="103.758" filterUnits="userSpaceOnUse" color-interpolation-filters="sRGB">
<feFlood flood-opacity="0" result="BackgroundImageFix"/>
<feColorMatrix in="SourceAlpha" type="matrix" values="0 0 0 0 0 0 0 0 0 0 0 0 0 0 0 0 0 0 127 0" result="hardAlpha"/>
<feOffset dx="1" dy="3"/>
<feGaussianBlur stdDeviation="4"/>
<feComposite in2="hardAlpha" operator="out"/>
<feColorMatrix type="matrix" values="0 0 0 0 0 0 0 0 0 0 0 0 0 0 0 0 0 0 0.25 0"/>
<feBlend mode="normal" in2="BackgroundImageFix" result="effect1_dropShadow_8035_26"/>
<feBlend mode="normal" in="SourceGraphic" in2="effect1_dropShadow_8035_26" result="shape"/>
</filter>
<linearGradient id="paint0_linear_8035_26" x1="1.85961" y1="4.65" x2="182.28" y2="185.962" gradientUnits="userSpaceOnUse">
<stop offset="0.0051662" stop-color="#8F5AEB"/>
<stop offset="0.39" stop-color="#3078DD"/>
<stop offset="0.63" stop-color="#3078DD"/>
<stop offset="1" stop-color="#86C4EA"/>
</linearGradient>
</defs>
</svg>
