<svg width="75" height="80" viewBox="0 0 75 80" fill="none" xmlns="http://www.w3.org/2000/svg">
<g filter="url(#filter0_di_7862_10789)">
<path d="M11.552 66.2763C7.38115 66.2763 4 62.8951 4 58.7243V17C4 9.82031 9.8203 4 17 4H29.8141C34.4928 4 38.5307 4.91225 41.9279 6.73675C45.3454 8.54098 47.9797 11.0649 49.8308 14.3084C51.6819 17.5317 52.6075 21.2821 52.6075 25.5595C52.6075 29.8572 51.6616 33.6177 49.7698 36.841C47.8983 40.044 45.2233 42.5274 41.7448 44.2911C38.2663 46.0547 34.1368 46.9366 29.3564 46.9366H19.3582C16.0834 46.9366 13.4286 44.2818 13.4286 41.007C13.4286 37.7321 16.0834 35.0773 19.3582 35.0773H26.5492C28.8276 35.0773 30.7295 34.682 32.2552 33.8914C33.8012 33.1008 34.9709 31.9959 35.7642 30.5769C36.5576 29.1376 36.9542 27.4651 36.9542 25.5595C36.9542 23.6337 36.5576 21.9713 35.7642 20.5725C34.9709 19.1535 33.8012 18.0588 32.2552 17.2884C30.7092 16.5181 28.8072 16.1329 26.5492 16.1329C22.4374 16.1329 19.104 19.4663 19.104 23.5781V58.7243C19.104 62.8951 15.7229 66.2763 11.552 66.2763Z" fill="url(#paint0_linear_7862_10789)"/>
<path d="M55.4961 74C52.2006 74 49.3731 73.3243 47.0134 71.9728C44.6673 70.6213 42.8636 68.7427 41.6024 66.3371C40.3412 63.918 39.7106 61.1204 39.7106 57.9444C39.7106 54.7549 40.3412 51.9573 41.6024 49.5517C42.8772 47.1325 44.6876 45.2472 47.0337 43.8957C49.3934 42.5443 52.2074 41.8685 55.4757 41.8685C58.3643 41.8685 60.88 42.3888 63.0227 43.4295C65.1789 44.4701 66.8605 45.9432 68.0675 47.8488C68.4372 48.422 68.7541 49.0256 69.018 49.6595C70.068 52.1813 67.7463 54.5184 65.0147 54.5184H64.8691C62.4929 54.5184 60.7467 52.4579 59.0763 50.768C58.1948 49.8625 57.0421 49.4098 55.6181 49.4098C54.4654 49.4098 53.4551 49.7341 52.5871 50.3829C51.7192 51.0181 51.0411 51.9641 50.5529 53.221C50.0783 54.4643 49.841 56.005 49.841 57.843C49.841 59.6811 50.0783 61.2353 50.5529 62.5057C51.0411 63.7625 51.7192 64.7153 52.5871 65.364C53.4551 65.9992 54.4654 66.3168 55.6181 66.3168C56.5403 66.3168 57.354 66.1209 58.0592 65.7289C58.7779 65.337 59.3679 64.7626 59.8289 64.0058C60.6926 62.5628 61.9756 61.2082 63.6574 61.2082H65.008C67.7346 61.2082 70.0337 63.5478 69.0127 66.0761C68.7496 66.7276 68.4345 67.3484 68.0675 67.9386C66.8877 69.8577 65.2264 71.3511 63.0837 72.4188C60.9545 73.4729 58.4253 74 55.4961 74Z" fill="url(#paint1_linear_7862_10789)"/>
</g>
<defs>
<filter id="filter0_di_7862_10789" x="0.6" y="0.6" width="74.0758" height="78.8" filterUnits="userSpaceOnUse" color-interpolation-filters="sRGB">
<feFlood flood-opacity="0" result="BackgroundImageFix"/>
<feColorMatrix in="SourceAlpha" type="matrix" values="0 0 0 0 0 0 0 0 0 0 0 0 0 0 0 0 0 0 127 0" result="hardAlpha"/>
<feOffset dx="1" dy="1"/>
<feGaussianBlur stdDeviation="2.2"/>
<feComposite in2="hardAlpha" operator="out"/>
<feColorMatrix type="matrix" values="0 0 0 0 0 0 0 0 0 0 0 0 0 0 0 0 0 0 0.55 0"/>
<feBlend mode="normal" in2="BackgroundImageFix" result="effect1_dropShadow_7862_10789"/>
<feBlend mode="normal" in="SourceGraphic" in2="effect1_dropShadow_7862_10789" result="shape"/>
<feColorMatrix in="SourceAlpha" type="matrix" values="0 0 0 0 0 0 0 0 0 0 0 0 0 0 0 0 0 0 127 0" result="hardAlpha"/>
<feOffset dx="3" dy="4"/>
<feGaussianBlur stdDeviation="4.5"/>
<feComposite in2="hardAlpha" operator="arithmetic" k2="-1" k3="1"/>
<feColorMatrix type="matrix" values="0 0 0 0 1 0 0 0 0 1 0 0 0 0 1 0 0 0 0.33 0"/>
<feBlend mode="normal" in2="shape" result="effect2_innerShadow_7862_10789"/>
</filter>
<linearGradient id="paint0_linear_7862_10789" x1="4" y1="4" x2="69.994" y2="73.8011" gradientUnits="userSpaceOnUse">
<stop stop-color="#8B5BEA"/>
<stop offset="0.275" stop-color="#3078DD"/>
<stop offset="0.65" stop-color="#3078DD"/>
<stop offset="1" stop-color="#41A9EA"/>
</linearGradient>
<linearGradient id="paint1_linear_7862_10789" x1="4" y1="4" x2="69.994" y2="73.8011" gradientUnits="userSpaceOnUse">
<stop stop-color="#8B5BEA"/>
<stop offset="0.275" stop-color="#3078DD"/>
<stop offset="0.65" stop-color="#3078DD"/>
<stop offset="1" stop-color="#41A9EA"/>
</linearGradient>
</defs>
</svg>
